REM DIRINDEX 1\2,1\3,1\4
REM DIRNAME cjc105,folder01,folder02,folder03
TITLE ""
FILE "DISC2Track30.mp3" MP3
  TRACK 01 AUDIO
    TITLE "0:"
    INDEX 01 00:00:00
  TRACK 02 AUDIO
    TITLE "4:cjc105_3737"
    INDEX 01 00:00:19
  TRACK 03 AUDIO
    TITLE "0:"
    INDEX 01 00:10:59
  TRACK 04 AUDIO
    TITLE "4:cjc105_3738"
    INDEX 01 00:11:39
  TRACK 05 AUDIO
    TITLE "0:"
    INDEX 01 00:14:43
  TRACK 06 AUDIO
    TITLE "3:cjc105_3739"
    INDEX 01 00:15:13
  TRACK 07 AUDIO
    TITLE "2:cjc105_3740"
    INDEX 01 00:16:16
  TRACK 08 AUDIO
    TITLE "3:cjc105_3741"
    INDEX 01 00:18:09
  TRACK 09 AUDIO
    TITLE "2:cjc105_3742"
    INDEX 01 00:19:13
  TRACK 10 AUDIO
    TITLE "3:cjc105_3743"
    INDEX 01 00:20:69
  TRACK 11 AUDIO
    TITLE "2:cjc105_3744"
    INDEX 01 00:21:68
  TRACK 12 AUDIO
    TITLE "3:cjc105_3745"
    INDEX 01 00:23:18
  TRACK 13 AUDIO
    TITLE "2:cjc105_3746"
    INDEX 01 00:24:33
  TRACK 14 AUDIO
    TITLE "3:cjc105_3747"
    INDEX 01 00:26:17
  TRACK 15 AUDIO
    TITLE "2:cjc105_3748"
    INDEX 01 00:27:18
  TRACK 16 AUDIO
    TITLE "3:cjc105_3749"
    INDEX 01 00:28:39
  TRACK 17 AUDIO
    TITLE "2:cjc105_3750"
    INDEX 01 00:29:25
  TRACK 18 AUDIO
    TITLE "3:cjc105_3751"
    INDEX 01 00:31:06
  TRACK 19 AUDIO
    TITLE "2:cjc105_3752"
    INDEX 01 00:32:13
  TRACK 20 AUDIO
    TITLE "3:cjc105_3753"
    INDEX 01 00:34:02
  TRACK 21 AUDIO
    TITLE "2:cjc105_3754"
    INDEX 01 00:35:15
  TRACK 22 AUDIO
    TITLE "3:cjc105_3755"
    INDEX 01 00:36:42
  TRACK 23 AUDIO
    TITLE "2:cjc105_3756"
    INDEX 01 00:37:54
  TRACK 24 AUDIO
    TITLE "3:cjc105_3757"
    INDEX 01 00:39:13
  TRACK 25 AUDIO
    TITLE "2:cjc105_3758"
    INDEX 01 00:40:15
  TRACK 26 AUDIO
    TITLE "3:cjc105_3759"
    INDEX 01 00:41:49
  TRACK 27 AUDIO
    TITLE "2:cjc105_3760"
    INDEX 01 00:42:45
  TRACK 28 AUDIO
    TITLE "3:cjc105_3761"
    INDEX 01 00:43:62
  TRACK 29 AUDIO
    TITLE "2:cjc105_3762"
    INDEX 01 00:44:58
  TRACK 30 AUDIO
    TITLE "3:cjc105_3763"
    INDEX 01 00:46:02
  TRACK 31 AUDIO
    TITLE "2:cjc105_3764"
    INDEX 01 00:47:03
  TRACK 32 AUDIO
    TITLE "3:cjc105_3765"
    INDEX 01 00:48:71
  TRACK 33 AUDIO
    TITLE "2:cjc105_3766"
    INDEX 01 00:49:65
  TRACK 34 AUDIO
    TITLE "3:cjc105_3767"
    INDEX 01 00:51:24
  TRACK 35 AUDIO
    TITLE "2:cjc105_3768"
    INDEX 01 00:52:22
  TRACK 36 AUDIO
    TITLE "3:cjc105_3769"
    INDEX 01 00:54:58
  TRACK 37 AUDIO
    TITLE "2:cjc105_3770"
    INDEX 01 00:55:55
  TRACK 38 AUDIO
    TITLE "3:cjc105_3771"
    INDEX 01 00:57:39
  TRACK 39 AUDIO
    TITLE "2:cjc105_3772"
    INDEX 01 00:58:24
  TRACK 40 AUDIO
    TITLE "3:cjc105_3773"
    INDEX 01 00:59:47
  TRACK 41 AUDIO
    TITLE "2:cjc105_3774"
    INDEX 01 01:00:43
  TRACK 42 AUDIO
    TITLE "3:cjc105_3775"
    INDEX 01 01:02:03
  TRACK 43 AUDIO
    TITLE "2:cjc105_3776"
    INDEX 01 01:03:06
  TRACK 44 AUDIO
    TITLE "3:cjc105_3777"
    INDEX 01 01:06:00
  TRACK 45 AUDIO
    TITLE "2:cjc105_3778"
    INDEX 01 01:07:02
  TRACK 46 AUDIO
    TITLE "3:cjc105_3779"
    INDEX 01 01:08:54
  TRACK 47 AUDIO
    TITLE "2:cjc105_3780"
    INDEX 01 01:09:54
  TRACK 48 AUDIO
    TITLE "3:cjc105_3781"
    INDEX 01 01:12:60
  TRACK 49 AUDIO
    TITLE "2:cjc105_3782"
    INDEX 01 01:13:69
  TRACK 50 AUDIO
    TITLE "3:cjc105_3783"
    INDEX 01 01:15:39
  TRACK 51 AUDIO
    TITLE "2:cjc105_3784"
    INDEX 01 01:16:42
  TRACK 52 AUDIO
    TITLE "3:cjc105_3785"
    INDEX 01 01:18:29
  TRACK 53 AUDIO
    TITLE "2:cjc105_3786"
    INDEX 01 01:19:17
  TRACK 54 AUDIO
    TITLE "3:cjc105_3787"
    INDEX 01 01:22:07
  TRACK 55 AUDIO
    TITLE "2:cjc105_3788"
    INDEX 01 01:23:26
  TRACK 56 AUDIO
    TITLE "3:cjc105_3789"
    INDEX 01 01:25:09
  TRACK 57 AUDIO
    TITLE "2:cjc105_3790"
    INDEX 01 01:25:70
  TRACK 58 AUDIO
    TITLE "3:cjc105_3791"
    INDEX 01 01:27:18
  TRACK 59 AUDIO
    TITLE "2:cjc105_3792"
    INDEX 01 01:28:24
  TRACK 60 AUDIO
    TITLE "3:cjc105_3793"
    INDEX 01 01:29:52
  TRACK 61 AUDIO
    TITLE "2:cjc105_3794"
    INDEX 01 01:30:60
  TRACK 62 AUDIO
    TITLE "3:cjc105_3795"
    INDEX 01 01:33:13
  TRACK 63 AUDIO
    TITLE "2:cjc105_3796"
    INDEX 01 01:34:14
  TRACK 64 AUDIO
    TITLE "3:cjc105_3797"
    INDEX 01 01:35:49
  TRACK 65 AUDIO
    TITLE "2:cjc105_3798"
    INDEX 01 01:36:56
  TRACK 66 AUDIO
    TITLE "3:cjc105_3799"
    INDEX 01 01:39:06
  TRACK 67 AUDIO
    TITLE "2:cjc105_3800"
    INDEX 01 01:39:74
  TRACK 68 AUDIO
    TITLE "3:cjc105_3801"
    INDEX 01 01:42:53
  TRACK 69 AUDIO
    TITLE "2:cjc105_3802"
    INDEX 01 01:43:58
  TRACK 70 AUDIO
    TITLE "3:cjc105_3803"
    INDEX 01 01:45:44
  TRACK 71 AUDIO
    TITLE "2:cjc105_3804"
    INDEX 01 01:46:61
  TRACK 72 AUDIO
    TITLE "3:cjc105_3805"
    INDEX 01 01:48:32
  TRACK 73 AUDIO
    TITLE "2:cjc105_3806"
    INDEX 01 01:49:33
  TRACK 74 AUDIO
    TITLE "3:cjc105_3807"
    INDEX 01 01:51:52
  TRACK 75 AUDIO
    TITLE "2:cjc105_3808"
    INDEX 01 01:52:55
  TRACK 76 AUDIO
    TITLE "3:cjc105_3809"
    INDEX 01 01:53:70
  TRACK 77 AUDIO
    TITLE "2:cjc105_3810"
    INDEX 01 01:54:70
  TRACK 78 AUDIO
    TITLE "3:cjc105_3811"
    INDEX 01 01:59:28
  TRACK 79 AUDIO
    TITLE "2:cjc105_3812"
    INDEX 01 02:00:29
  TRACK 80 AUDIO
    TITLE "3:cjc105_3813"
    INDEX 01 02:04:04
  TRACK 81 AUDIO
    TITLE "2:cjc105_3814"
    INDEX 01 02:05:15
  TRACK 82 AUDIO
    TITLE "3:cjc105_3815"
    INDEX 01 02:08:70
  TRACK 83 AUDIO
    TITLE "2:cjc105_3816"
    INDEX 01 02:09:68
  TRACK 84 AUDIO
    TITLE "3:cjc105_3817"
    INDEX 01 02:12:21
  TRACK 85 AUDIO
    TITLE "2:cjc105_3818"
    INDEX 01 02:13:48
  TRACK 86 AUDIO
    TITLE "3:cjc105_3819"
    INDEX 01 02:14:63
  TRACK 87 AUDIO
    TITLE "2:cjc105_3820"
    INDEX 01 02:15:74
  TRACK 88 AUDIO
    TITLE "3:cjc105_3821"
    INDEX 01 02:20:61
  TRACK 89 AUDIO
    TITLE "2:cjc105_3822"
    INDEX 01 02:21:43
  TRACK 90 AUDIO
    TITLE "3:cjc105_3823"
    INDEX 01 02:23:68
  TRACK 91 AUDIO
    TITLE "2:cjc105_3824"
    INDEX 01 02:25:06
  TRACK 92 AUDIO
    TITLE "3:cjc105_3825"
    INDEX 01 02:27:30
  TRACK 93 AUDIO
    TITLE "2:cjc105_3826"
    INDEX 01 02:28:26
  TRACK 94 AUDIO
    TITLE "3:cjc105_3827"
    INDEX 01 02:29:62
  TRACK 95 AUDIO
    TITLE "2:cjc105_3828"
    INDEX 01 02:30:64
  TRACK 96 AUDIO
    TITLE "3:cjc105_3829"
    INDEX 01 02:32:45
  TRACK 97 AUDIO
    TITLE "2:cjc105_3830"
    INDEX 01 02:33:48
  TRACK 98 AUDIO
    TITLE "3:cjc105_3831"
    INDEX 01 02:35:71
  TRACK 99 AUDIO
    TITLE "2:cjc105_3832"
    INDEX 01 02:36:60
  TRACK 100 AUDIO
    TITLE "3:cjc105_3833"
    INDEX 01 02:38:24
  TRACK 101 AUDIO
    TITLE "2:cjc105_3834"
    INDEX 01 02:39:26
  TRACK 102 AUDIO
    TITLE "3:cjc105_3835"
    INDEX 01 02:41:17
  TRACK 103 AUDIO
    TITLE "2:cjc105_3836"
    INDEX 01 02:42:22
  TRACK 104 AUDIO
    TITLE "3:cjc105_3837"
    INDEX 01 02:43:25
  TRACK 105 AUDIO
    TITLE "2:cjc105_3838"
    INDEX 01 02:44:44
  TRACK 106 AUDIO
    TITLE "3:cjc105_3839"
    INDEX 01 02:46:18
  TRACK 107 AUDIO
    TITLE "2:cjc105_3840"
    INDEX 01 02:47:23
  TRACK 108 AUDIO
    TITLE "3:cjc105_3841"
    INDEX 01 02:51:05
  TRACK 109 AUDIO
    TITLE "2:cjc105_3842"
    INDEX 01 02:52:07
  TRACK 110 AUDIO
    TITLE "3:cjc105_3843"
    INDEX 01 02:54:31
  TRACK 111 AUDIO
    TITLE "2:cjc105_3844"
    INDEX 01 02:55:25
  TRACK 112 AUDIO
    TITLE "3:cjc105_3845"
    INDEX 01 02:58:07
  TRACK 113 AUDIO
    TITLE "2:cjc105_3846"
    INDEX 01 02:59:05
  TRACK 114 AUDIO
    TITLE "3:cjc105_3847"
    INDEX 01 03:01:70
  TRACK 115 AUDIO
    TITLE "2:cjc105_3848"
    INDEX 01 03:02:72
  TRACK 116 AUDIO
    TITLE "3:cjc105_3849"
    INDEX 01 03:04:10
  TRACK 117 AUDIO
    TITLE "2:cjc105_3850"
    INDEX 01 03:05:07
  TRACK 118 AUDIO
    TITLE "3:cjc105_3851"
    INDEX 01 03:08:21
  TRACK 119 AUDIO
    TITLE "2:cjc105_3852"
    INDEX 01 03:09:29
  TRACK 120 AUDIO
    TITLE "3:cjc105_3853"
    INDEX 01 03:11:12
  TRACK 121 AUDIO
    TITLE "2:cjc105_3854"
    INDEX 01 03:12:01
  TRACK 122 AUDIO
    TITLE "3:cjc105_3855"
    INDEX 01 03:13:52
  TRACK 123 AUDIO
    TITLE "2:cjc105_3856"
    INDEX 01 03:15:19
  TRACK 124 AUDIO
    TITLE "3:cjc105_3857"
    INDEX 01 03:16:42
  TRACK 125 AUDIO
    TITLE "2:cjc105_3858"
    INDEX 01 03:17:44
  TRACK 126 AUDIO
    TITLE "3:cjc105_3859"
    INDEX 01 03:21:04
  TRACK 127 AUDIO
    TITLE "2:cjc105_3860"
    INDEX 01 03:22:18
  TRACK 128 AUDIO
    TITLE "3:cjc105_3861"
    INDEX 01 03:25:51
  TRACK 129 AUDIO
    TITLE "2:cjc105_3862"
    INDEX 01 03:26:56
  TRACK 130 AUDIO
    TITLE "3:cjc105_3863"
    INDEX 01 03:28:06
  TRACK 131 AUDIO
    TITLE "2:cjc105_3864"
    INDEX 01 03:29:43
  TRACK 132 AUDIO
    TITLE "3:cjc105_3865"
    INDEX 01 03:31:30
  TRACK 133 AUDIO
    TITLE "2:cjc105_3866"
    INDEX 01 03:32:18
  TRACK 134 AUDIO
    TITLE "3:cjc105_3867"
    INDEX 01 03:35:24
  TRACK 135 AUDIO
    TITLE "2:cjc105_3868"
    INDEX 01 03:36:10
  TRACK 136 AUDIO
    TITLE "3:cjc105_3869"
    INDEX 01 03:38:28
  TRACK 137 AUDIO
    TITLE "2:cjc105_3870"
    INDEX 01 03:39:39
  TRACK 138 AUDIO
    TITLE "3:cjc105_3871"
    INDEX 01 03:41:17
  TRACK 139 AUDIO
    TITLE "2:cjc105_3872"
    INDEX 01 03:42:18
  TRACK 140 AUDIO
    TITLE "3:cjc105_3873"
    INDEX 01 03:43:39
  TRACK 141 AUDIO
    TITLE "2:cjc105_3874"
    INDEX 01 03:44:52
  TRACK 142 AUDIO
    TITLE "3:cjc105_3875"
    INDEX 01 03:46:63
  TRACK 143 AUDIO
    TITLE "2:cjc105_3876"
    INDEX 01 03:47:68
  TRACK 144 AUDIO
    TITLE "3:cjc105_3877"
    INDEX 01 03:49:26
  TRACK 145 AUDIO
    TITLE "2:cjc105_3878"
    INDEX 01 03:50:18
  TRACK 146 AUDIO
    TITLE "3:cjc105_3879"
    INDEX 01 03:51:33
  TRACK 147 AUDIO
    TITLE "2:cjc105_3880"
    INDEX 01 03:52:30
  TRACK 148 AUDIO
    TITLE "3:cjc105_3881"
    INDEX 01 03:53:55
  TRACK 149 AUDIO
    TITLE "2:cjc105_3882"
    INDEX 01 03:54:59
  TRACK 150 AUDIO
    TITLE "3:cjc105_3883"
    INDEX 01 03:56:40
  TRACK 151 AUDIO
    TITLE "2:cjc105_3884"
    INDEX 01 03:57:45
  TRACK 152 AUDIO
    TITLE "3:cjc105_3885"
    INDEX 01 03:58:66
  TRACK 153 AUDIO
    TITLE "2:cjc105_3886"
    INDEX 01 04:00:12
  TRACK 154 AUDIO
    TITLE "0:"
    INDEX 01 04:01:55
